<?xml version="1.0" encoding="UTF-8"?>
<svg id="Calque_2" data-name="Calque 2" xmlns="http://www.w3.org/2000/svg" viewBox="0 0 709.4 722.3">
  <defs>
    <style>
      .cls-1 {
        fill: #fff;
        stroke-width: 0px;
      }
    </style>
  </defs>
  <g id="Calque_1-2" data-name="Calque 1">
    <path class="cls-1" d="M670.12,722.3c-11.29,0-20.66-3.84-28.11-11.51-7.45-7.67-11.18-16.93-11.18-27.77s3.73-20.08,11.18-27.77c7.45-7.67,16.81-11.51,28.11-11.51s20.08,3.84,27.77,11.51c7.67,7.69,11.51,16.93,11.51,27.77s-3.84,20.09-11.51,27.77c-7.68,7.67-16.93,11.51-27.77,11.51Z"/>
    <path class="cls-1" d="M575.15,489.53c-14.6-21.36-33.41-38.26-56.39-50.71-23-12.44-47.47-20.29-73.44-23.53v-1.62c34.61-6.49,64.51-20.41,89.66-41.79,25.15-21.36,37.73-50.17,37.73-86.42,0-34.08-11.95-59.04-32.59-80-2.03-20-9.54-38.13-19.65-55.53-4.11-7.08-7.13-14.21-8.54-22.6-2.82-16.76-4.74-34.97-18.35-46.88-20.5-17.92-41.21-36.21-64.23-50.46-15.36-9.51-35.52-9.95-52.82-17.51-8.77-3.83-19.62-2.71-28.14-9.45-5.51-4.36-12.54-3.18-19.13-1.53-14.11,3.53-28.51,5.02-42.9,3.11-16.85-2.23-33.58-.98-50.24.76-17.44,1.82-34.8,4.08-52.35,4.65-38.22,1.25-66.15,21.96-90.39,49.01-6.56,7.33-13.28,12.8-23.8,12.29-11.93-.58-20.48,4.58-23.34,16.67-1.27,5.39-4.59,7.83-9.28,9.33-11.18,3.59-22.16,6.48-24.56,21.26-1.89,11.63-10.78,21.89-7.59,34.71,1.68,6.78.52,13.15-1.98,19.42-4.72,11.83-3.92,22.7,4.96,32.55,4.06,4.5,6.4,9.61,3.73,16.04-.97,2.35-1.46,5.77-.48,7.94,6.87,15.16,20.62,20.6,35.58,23.17,11.91,2.05,23.32-1.08,29.31-12.1,4.43-8.15,9.2-7.6,15.72-4.81,3.93,1.68,7.85,3.42,11.63,5.39,30.65,15.97,61.71,30.16,96.16,35.35v360.55c0,15.15-2.44,30.02-7.3,44.63-4.87,14.6-10.83,26.78-17.85,36.51v4.06h202.04c61.67,0,113.87-12.71,156.61-38.14,42.73-25.42,64.1-65.18,64.1-119.28,0-28.66-7.3-53.68-21.91-75.06ZM456.28,373.9c-23.53,21.64-55.58,32.46-96.16,32.46h-80.71c6.11-46.71,38.95-71.95,54.35-96.57,3.3-5.27,7.06-9.74,11.31-13.44,2.85-2.11,5.76-4.16,8.73-6.12,3.86-2.13,8.04-3.79,12.58-4.96,25.56-6.56,49.11-17.44,70.6-32.39,14.52-10.1,27.18-12.72,41.25.8,3.08,2.96,6.39,4.69,9.78,5.32,2.37,9.43,3.57,19.33,3.57,29.71,0,35.17-11.77,63.57-35.3,85.2ZM329.51,283.91c.06,2.41-.41,4.71-2.36,6.33-17.25,14.29-26.38,35.45-43.69,51.6-1.63-11.82-4-22.53-7.62-32.92-2.14-6.14.75-11.21,4.07-16.24,14.96-22.65,35.2-40.28,55.53-58.45-3.04,16.64-6.36,32.91-5.92,49.67ZM429.57,234.11c6.77-7,10.94,1.19,18.32,1.05-14.72,10.24-28.54,17.79-43.8,22.51,8.53-7.82,17.44-15.26,25.48-23.56ZM370.37,225.28c5.02-.41,10-1.41,15-2.13,4.66-.67,8.82.49,10.88,4.88,4.03,8.6,10.67,10.38,19.55,8.4-20.65,18.5-44.22,30.46-69.85,40.58-.88-11.14-.99-21.28.89-31.18,3.34-17.6,5.5-19.07,23.52-20.55ZM337.42,159.85c-16.13,19.86-26.07,44.82-46.88,63.81-2.12-35.52,10.88-58.39,46.88-63.81ZM298.88,226.84c14.62-11.19,23.01-28.35,35.95-41.3,4.3-4.31,8.89-8.34,13.79-12.91,2.31,29.92-15.21,47.76-32.99,65.29-13.19,13-26.88,25.5-41.19,39.02,7.74-17.31,7.51-37.13,24.44-50.09ZM248.35,165.57c3.58-2.32,7.34-4.37,11.06-6.47,3.87-2.19,5.68-6.2,8.44-9.72.91.95,1.77,1.69,2.44,2.57,22.63,30.17,1.17,59.67-1.26,89.96-8.68-15.97-19.53-29.91-29.44-44.49-6.29-9.25-.78-25.67,8.76-31.85ZM222.43,165.97c4.32-4.44,2.68-11.93,9.5-18.24-4.87,13.02-2.81,24.41-3.9,36.79-9.27-5.41-13.48-10.45-5.6-18.55ZM86.75,216.84c11.22-3.68,20.23-6.6,29.2-9.61,3.2-1.07,5.46.34,6.91,2.8,7.2,12.24,15.83,23.41,24.68,35.14-19.65-9.16-39.31-18.32-60.79-28.34ZM127.03,197.61c-3.57-5.85,3.17-5.61,5.38-4.64,8.46,3.71,14.19,2.09,17.48-7.95,1.91,15.44-.05,29.49,5.02,45.55-14.27-9.21-20.85-21.43-27.88-32.95ZM164.18,226.47c-2.61-20.14-5.06-40.08-1.93-60.35.85-5.53,2.11-6.79,8.17-4.66,48.83,17.17,65.59,59.58,81.63,102.64.63,1.69.27,3.75.51,8.35-16.56-13.96-34.26-17.39-52.66-18.93-6.96-.58-13.66-2.69-19.88-6-8.52-4.53-14.4-10.08-15.83-21.05ZM492.39,637.21c-12.98,21.38-31.11,38.01-54.36,49.9-23.27,11.9-50.31,17.85-81.14,17.85-12.98,0-26.65-1.22-40.98-3.65-14.34-2.44-27.46-6.35-39.35-11.76v-266.15h84.39c29.74,0,55.99,5.82,78.71,17.44,22.72,11.64,40.43,28.13,53.15,49.5,12.7,21.37,19.07,46.12,19.07,74.24s-6.49,51.26-19.47,72.62Z"/>
  </g>
</svg>