<?xml version="1.0" encoding="UTF-8"?>
<svg id="Calque_2" data-name="Calque 2" xmlns="http://www.w3.org/2000/svg" viewBox="0 0 1116.27 447.89">
  <defs>
    <style>
      .cls-1 {
        fill: #fff;
        stroke-width: 0px;
      }
    </style>
  </defs>
  <g id="Calque_1-2" data-name="Calque 1">
    <path class="cls-1" d="M0,443.09c2.6-3.6,4.8-8.1,6.6-13.5,1.8-5.4,2.7-10.9,2.7-16.5v-147c0-5.6-.9-11.1-2.7-16.5s-4-9.9-6.6-13.5v-1.5h74.7c20.8,0,38.1,3.9,51.9,11.7,13.8,7.8,20.7,20.1,20.7,36.9,0,13.4-4.65,24.05-13.95,31.95-9.3,7.9-20.35,13.05-33.15,15.45v.6c9.6,1.2,18.65,4.1,27.15,8.7,8.5,4.6,15.45,10.85,20.85,18.75,5.4,7.9,8.1,17.15,8.1,27.75,0,20-7.9,34.7-23.7,44.1-15.8,9.4-35.1,14.1-57.9,14.1H0v-1.5ZM68.7,327.89c15,0,26.85-4,35.55-12,8.7-8,13.05-18.5,13.05-31.5,0-8.2-2-15.6-6-22.2-4-6.6-9.9-11.8-17.7-15.6-7.8-3.8-17.1-5.7-27.9-5.7-9,0-18.3,1.5-27.9,4.5v82.5h30.9ZM67.5,438.29c11.4,0,21.4-2.2,30-6.6,8.6-4.4,15.3-10.55,20.1-18.45,4.8-7.9,7.2-16.85,7.2-26.85s-2.35-19.55-7.05-27.45c-4.7-7.9-11.25-14-19.65-18.3-8.4-4.3-18.1-6.45-29.1-6.45h-31.2v98.4c4.4,2,9.25,3.45,14.55,4.35,5.3.9,10.35,1.35,15.15,1.35Z"/>
    <path class="cls-1" d="M245.4,447.89c-13.2,0-25.05-2.95-35.55-8.85s-18.8-14.45-24.9-25.65c-6.1-11.2-9.15-24.4-9.15-39.6,0-16.4,3.3-30.85,9.9-43.35,6.6-12.5,15.4-22.15,26.4-28.95,11-6.8,22.8-10.2,35.4-10.2,11.8,0,22,2.6,30.6,7.8,8.6,5.2,15.15,12.05,19.65,20.55,4.5,8.5,6.75,17.75,6.75,27.75h-114.3v-6.3h85.8c-1.6-13-5.6-23.05-12-30.15-6.4-7.1-15.1-10.65-26.1-10.65-7,0-13.45,1.8-19.35,5.4-5.9,3.6-10.65,9.15-14.25,16.65-3.6,7.5-5.4,16.85-5.4,28.05,0,16.4,2.5,30.3,7.5,41.7,5,11.4,11.85,20,20.55,25.8,8.7,5.8,18.55,8.7,29.55,8.7s21-2.65,29.4-7.95c8.4-5.3,14.5-12.55,18.3-21.75h3c-3.2,15.2-10.35,27.5-21.45,36.9-11.1,9.4-24.55,14.1-40.35,14.1Z"/>
    <path class="cls-1" d="M540.59,447.89c-13.2,0-25.05-2.95-35.55-8.85s-18.8-14.45-24.9-25.65c-6.1-11.2-9.15-24.4-9.15-39.6,0-16.4,3.3-30.85,9.9-43.35,6.6-12.5,15.4-22.15,26.4-28.95,11-6.8,22.8-10.2,35.4-10.2,11.8,0,22,2.6,30.6,7.8,8.6,5.2,15.15,12.05,19.65,20.55,4.5,8.5,6.75,17.75,6.75,27.75h-114.3v-6.3h85.8c-1.6-13-5.6-23.05-12-30.15-6.4-7.1-15.1-10.65-26.1-10.65-7,0-13.45,1.8-19.35,5.4-5.9,3.6-10.65,9.15-14.25,16.65-3.6,7.5-5.4,16.85-5.4,28.05,0,16.4,2.5,30.3,7.5,41.7,5,11.4,11.85,20,20.55,25.8,8.7,5.8,18.55,8.7,29.55,8.7s21-2.65,29.4-7.95c8.4-5.3,14.5-12.55,18.3-21.75h3c-3.2,15.2-10.35,27.5-21.45,36.9-11.1,9.4-24.55,14.1-40.35,14.1Z"/>
    <path class="cls-1" d="M623.08,321.89c-4.4-10.6-9.9-19.2-16.5-25.8v-1.5h47.7v1.5c-2.6,3.4-4.15,7.45-4.65,12.15-.5,4.7.35,9.65,2.55,14.85l38.1,91.5,37.5-90c2.4-6,3.1-11.55,2.1-16.65-1-5.1-3.1-9.05-6.3-11.85v-1.5h32.1v1.5c-8.8,6.4-15.4,14.9-19.8,25.5l-51.9,124.2h-8.4l-52.5-123.9Z"/>
    <path class="cls-1" d="M821.38,447.89c-9.6,0-18.05-2.25-25.35-6.75-7.3-4.5-13-10.8-17.1-18.9-4.1-8.1-6.15-17.25-6.15-27.45v-60.9c0-6.6-.75-12.05-2.25-16.35-1.5-4.3-3.85-8.05-7.05-11.25v-1.5l34.5-13.5h1.5v103.2c0,10.4,3.1,19,9.3,25.8,6.2,6.8,14.3,10.2,24.3,10.2,6.8,0,13.1-1.5,18.9-4.5,5.8-3,10.4-7.25,13.8-12.75,3.4-5.5,5.1-11.75,5.1-18.75v-60.6c0-6.6-.75-12.1-2.25-16.5-1.5-4.4-3.85-8.1-7.05-11.1v-1.5l34.5-13.5h1.5v119.4c0,6.4.8,11.75,2.4,16.05,1.6,4.3,4,7.75,7.2,10.35v1.5l-34.8,9.3h-1.5v-30.3h-1.5c-4,9-10.2,16.3-18.6,21.9-8.4,5.6-18.2,8.4-29.4,8.4Z"/>
    <path class="cls-1" d="M1001.08,447.89c-13.2,0-25.05-2.95-35.55-8.85s-18.8-14.45-24.9-25.65c-6.1-11.2-9.15-24.4-9.15-39.6,0-16.4,3.3-30.85,9.9-43.35,6.6-12.5,15.4-22.15,26.4-28.95,11-6.8,22.8-10.2,35.4-10.2,11.8,0,22,2.6,30.6,7.8,8.6,5.2,15.15,12.05,19.65,20.55,4.5,8.5,6.75,17.75,6.75,27.75h-114.3v-6.3h85.8c-1.6-13-5.6-23.05-12-30.15-6.4-7.1-15.1-10.65-26.1-10.65-7,0-13.45,1.8-19.35,5.4-5.9,3.6-10.65,9.15-14.25,16.65-3.6,7.5-5.4,16.85-5.4,28.05,0,16.4,2.5,30.3,7.5,41.7,5,11.4,11.85,20,20.55,25.8,8.7,5.8,18.55,8.7,29.55,8.7s21-2.65,29.4-7.95c8.4-5.3,14.5-12.55,18.3-21.75h3c-3.2,15.2-10.35,27.5-21.45,36.9-11.1,9.4-24.55,14.1-40.35,14.1Z"/>
    <path class="cls-1" d="M1098.88,447.59c-5,0-9.15-1.7-12.45-5.1s-4.95-7.5-4.95-12.3,1.65-8.9,4.95-12.3c3.3-3.4,7.45-5.1,12.45-5.1s8.9,1.7,12.3,5.1c3.4,3.4,5.1,7.5,5.1,12.3s-1.7,8.9-5.1,12.3c-3.4,3.4-7.5,5.1-12.3,5.1Z"/>
    <path class="cls-1" d="M553.06,178.75c-1.03-1.6-1.08-4.41-3.43-4.39-2.49.02-1.97,3.08-3.16,4.55-.16.2-.51.24-.82.37-1.59-.78-2.52-2.26-2.92-3.81-2.55-9.92-9.33-16.15-17.84-20.97-3.13-1.77-5.34-4.22-6.46-7.84-.93-3.02-2.87-5.62-5.67-7.34-5.78-3.55-10.58-8.58-15.9-12.29-5.21-3.64-13.09-5.68-19.78-6.22-5.35-.44-10.66.39-15.75-2.24-1.57-.81-3.54-1.37-5.26-1.24-5.17.41-9.38-1.47-13.3-4.55-3.15-2.48-6.57-2.23-10.37-1.42-11.29,2.42-22.7,4.35-34.14.89-6.85-2.08-12.93-1.7-18.43,3.49-3.29,3.1-7.21,4.41-11.91,2.73-2.93-1.05-5.58.15-7.39,2.75-1.23,1.77-2.5,3.54-3.5,5.44-3.08,5.89-7.59,9.79-14.11,11.67-4.1,1.18-8.06,3.05-11.85,5.05-6.65,3.51-12.37,8.33-13.66,16.1-.82,4.92-2.97,8.54-6.15,12.09-3.83,4.28-7.24,8.92-3.67,15.15.51.89.13,1.89-.18,2.88-2.76,8.81-1.59,11.79,6.57,15.88,2.54,1.27,3.33,2.75,2.63,5.5-.74,2.92.29,5.5,2.3,7.76,1.32,1.47,2.7,3,3.58,4.74,1.76,3.48,4.21,3.14,7.05,1.75,2.16-1.06,3.58-2.93,5.16-4.63,4.66-5.01,7.64-5.75,13.54-2.59,2.48,1.32,3.89.79,5.49-1.08.78-.91,1.36-2.23,3.25-2.33,6.44,11.84,15.56,20.49,29.59,22.49,9.23,1.31,16.94,4.66,23.09,10.11,0,0,0,.02,0,.02,1.6,4.4,2.4,9.9,2.4,16.5v151.5c0,5.6-.7,10.8-2.1,15.6-1.4,4.8-3.3,8.9-5.7,12.3v1.5h42.3v-1.5c-.2-.29-.4-.58-.59-.88,0-.16-.02-.32-.04-.47-2.39-16.31-3.79-32.66-2.23-49.16.73-7.77,1.47-15.53,1.98-23.32.94-14.39-1.3-28.51-4.5-42.44-4.16-18.08-3.52-35.11,8.03-50.71,3.74-5.04,6.59-10.86,7.57-17.13,1.58-10.13,8.09-15.95,16.51-20.32,12.54-6.51,26-10.57,39.46-14.64,5.57-1.68,10.66-1.68,15.5,2.07,2.12,1.64,4.79,2.78,7.33.82,2.84-2.18,6.09-3.25,9.43-4.19,2.64-.74,4.1-2.38,4.65-5.17.76-3.83,2.8-7.01,5.95-9.42v-25.97c-1.74-.47-1.81-2.22-2.59-3.42ZM431.27,185.31c.86.22,1.34.92,1.51,1.77.39,2,.05,3.92-.53,5.85-1.37,4.55-2.65,9.12-4.07,13.65-.52,1.67-1.03,4.09-3.07,3.87-1.64-.17-1.53-2.68-2.07-4.19-.32-.9-.22-1.95-.36-3.5,1.18-5.49,3.83-10.93,6.62-16.32.39-.76,1.01-1.38,1.96-1.14ZM432.19,252.5c-.34,2.37-1.18,4.67-2.08,8.13-4.51-8.33-12.01-13.9-11.48-23.89.26-4.89,2.09-8.95,4.37-13.02,1.14-2.03,1.99-2.09,3.46-.13,6.54,8.75,7.22,18.62,5.74,28.9ZM416.5,187.15c3.18-1.35,4.49-4.12,6.01-8.47.8,5.38,1.04,9.33-1.11,12.95-.51.85-.43,2.85-2,2.28-1.91-.7-2.81-2.67-3.78-4.42-.69-1.25-.05-1.94.88-2.33ZM408.55,191.17c2.3-.82,2.92,2.22,4.43,3.13,7.97,4.8,4.96,13.61,7.72,20.26.54,1.3.15,2.85-.73,4.24-2.3,3.61-4.13,7.46-5.64,11.6-2.06-11.41-5.94-22.4-6.81-33.96-.14-1.83-1.44-4.39,1.03-5.28ZM384.57,203.71c1.03-.94,1.51-2.55,2.06-3.92.4-1.01.7-2,1.99-1.33,4.6,2.39,6.6-.86,8.79-3.88.67-.92,1.48-1.8,2.4-2.48,1.77-1.32,2.91-1.31,3.01,1.44.47,12.94,4.36,25.39,5.82,39.28-4.85-3.5-7.63-7.68-11.04-11.21-4.15-4.3-8.3-8.61-12.62-12.74-1.85-1.77-2.67-3.07-.4-5.15ZM369.33,222.75c-2.7-2.5-5.1-5.19-7.31-8.09-.68-.88-1.68-1.89-.99-3.1.72-1.27,2.12-1.78,3.46-1.28,3.28,1.22,6.48.95,9.75.03,1.3-.36,2.61-.14,3.76.75,8.5,6.59,15.87,14.3,22.62,22.74-10.51-3.65-22.44-2.88-31.3-11.06ZM435.42,225.22c-4.43-6-7.32-11.81-1.43-18.67,2.29-2.67,1.19-6.69,2.92-10.59,3.22,3.67,6.56,3.91,10.21,1.94.43-.23.88-.54,1.35-.6,1.97-.24,4.47-.93,5.77.34,1.38,1.35-.49,3.31-1.2,4.88-3.69,8.16-8.27,15.8-13.7,22.94-1.61,2.11-2.4,1.83-3.92-.23ZM454.77,234.9c-.87,12.92-7.07,23.82-12.84,34.93-.71-.36-1.15-.52-1.14-.59,1.79-10.54,1.21-21.15.98-31.76-.05-2.44,1.13-4.49,2.5-6.37,7.15-9.78,13.84-19.79,17.59-31.48,1.59-4.98,5.13.05,7.81-.64-1.62,2.27-3.18,4.6-4.87,6.81-6.58,8.59-9.32,18.47-10.03,29.09ZM466.37,231.99c-1.25,1.25-2.58,2.42-4.08,3.83-3.71-16.82,8.05-26.58,15.69-38.93,1.83,4.84,4.76,4.98,8.7,3.62,3.37-1.17,8.04-4.83,10.31-.89,1.81,3.14-3.69,5.26-6.03,7.68-8.08,8.34-16.38,16.48-24.6,24.68ZM476.15,233.3c-.37-.52-.75-1.05-1.12-1.57,6.95-6.14,13.9-12.28,20.6-18.2-.1,3.07-.89,7.67,5.8,9.77-9.32,3.68-17.3,6.84-25.28,10Z"/>
    <path class="cls-1" d="M454.08,66c-.69-1.52-1.26-3.02-1.19-4.77.23-5.54-2.29-9.91-6.18-13.59-1.7-1.61-3.64-3.07-4.47-5.29-5.07-13.5-16.96-19.95-28.12-27.05-2.56-1.62-5.91-2.73-8.91-2.78-7.81-.13-14.03-3.17-19.58-8.39-4.48-4.2-9.71-5.06-15.7-3.2-6.6,2.05-13.43,1.94-20.19.54-9.15-1.89-18.08-2.63-26.2,3.53-2.21,1.67-5.06,1.5-7.72.97-6.95-1.39-13.7-.41-19.85,2.74-5.22,2.67-10.41,3.96-16.24,3.52-7.59-.56-13.64,2.56-17.82,8.86-2.06,3.09-4.69,5-8.14,6.11-4.03,1.3-6.93,3.74-7.81,8.17-.9,4.48-3.43,7.69-7.54,9.88-3.58,1.91-6.5,4.7-7.72,8.75-2.42,8.03-2.39,16.11.7,23.91,1.2,3.03,2.09,5.9,1.77,8.19-.23,4.09-.91,7.6,2.15,9.67,5.71,3.86,10.72,8.17,13.7,14.63.96,2.07,3.15,2.82,4.33-.21,1.02-2.63,2.45-2.21,4.55-1.36,3.42,1.38,6.7.83,8.76-2.46,1.71-2.73,3.11-1.84,5.16-.48,8.56,5.7,17.29,11.14,25.83,16.86,9.95,6.67,19.7,13.6,27.5,22.89,7.98,9.51,13.03,19.79,11.12,32.79-1.06,7.21-1.06,14.6-1.2,21.92-.48,23.96-.65,47.93-1.25,71.89-.5,19.93,10.83,155.27-3.66,169.68-.13.79-.59,2.04.14,2.48v.16h.72c.06,0,.11,0,.17,0h41.42v-1.5c-2.4-3.4-4.3-7.5-5.7-12.3-1.4-4.8-2.1-10-2.1-15.6v-194.1h-1.5c-6.8-10.44-11.33-11.69-14.85-8.88-.3-9.38-.47-18.76-.33-28.15.19-12.46,3.9-23.26,14.94-30.89,8.66-5.99,15.57-14.02,21.35-22.85,7.02-10.73,16.37-18.54,27.87-24.15,8.89-4.33,18.53-7.52,25.54-15.07.78-.84,1.72-.84,2.71-.95,12.19-1.31,18.67-12.88,13.55-24.15ZM296.29,88.26c.65-1.22,1.81-.24,2.62-.08,6.31,1.28,9.17-3.24,13.08-8.15.72,9.54,1.36,18.06,2.05,27.38-5.97-5.68-11.42-10.86-16.86-16.04-.92-.87-1.5-1.97-.89-3.11ZM288.91,112.02c-5.25-3.03-10.28-5.94-15.31-8.85,2.71-.76,4.97-1.53,7.18-3.28,3.76-2.98,5.06-2.42,6.41,2.1.93,3.12,2.18,6.2,1.72,10.03ZM295.28,115.75c-.81-.49-2.01-1.38-1.99-2.06.2-6.7-2.2-12.81-3.9-19.29,12.9,8.65,23.14,19.31,29.12,35.23-8.55-5.09-15.91-9.45-23.24-13.88ZM388.08,73.31c2.09-.66,2.14,1.54,2.96,2.6.81,1.05.77,1.94-.27,2.98-3.93,3.94-8.01,7.65-14.21,10.77,2.95-4.78,4.54-8.81,5.85-12.97.85-2.7,3.55-2.72,5.66-3.38ZM341.08,79.23c.26-2.59.7-5.27,3.66-6.51,1.26-.52,2.37-2.44,3.79-.66,1.06,1.32,2.98,2.59,2.06,4.69-2.37,5.4-3.91,11.18-7.62,17.28-1.42-5.66-2.37-10.16-1.9-14.79ZM322.1,113.16c-1.08-6.53-1.56-13.17-2.41-19.74-.43-3.29.08-7.15,2.18-8.76,1.92-1.47,5.11,1.28,7.42,2.82,7.33,4.86,9.81,12.05,8.42,20.33-1.46,8.66-1.67,17.04.93,25.55,1.44,4.71-.13,9.46-1.64,14.97-8.93-10.81-12.84-22.64-14.91-35.16ZM345.45,118.86c-1.18-10.03-.25-17.98,4.4-25.45,2.41-3.87,3.59-8.5,5.45-12.72.61-1.38,1.21-3.98,3.22-2.8,4.43,2.61,7.86.24,11.66-1.29,2.04-.82,4.66-2.72,6.44-.95,1.54,1.54-.39,4.03-1.12,5.94-1.54,4.03-3.35,8.1-6.59,10.98-8.54,7.57-16.99,15.19-23.46,26.29ZM349.14,153.87c-2.99-25.7,6.47-45.13,27.48-59.12,5.27-3.51,10.61-6.96,14.84-11.7,2.32-2.59,3.47-1.32,5.57.22,2.48,1.82,1.6,2.81.15,4.56-5.88,7.17-9.26,15.68-12.19,24.3-6.32,18.57-18.97,31.57-35.85,41.73ZM391.71,112.23c.56-9.77,4.94-17.71,11.23-21.77,1.96-1.27,2.84-1.2,4.44.57,4.37,4.85,9.15,4.51,12.71-.76,1.09-1.61,1.75-2.57,3.75-1.18,1.94,1.36,4.43.94,7.81,1.45-12.94,9.37-28.78,10.71-39.94,21.68Z"/>
  </g>
</svg>